{"title":"Gravity 2013 720p WEB-DL H264","uid":9442993,"size":1468530688,"categoryP":"video","categoryS":"hd___movies","magnet":"?xt=urn:btih:7486e2f30410ced08cb187406e70a33bd2f0a078&amp;dn=Gravity+2013+720p+WEB-DL+H264&amp;tr=udp%3A%2F%2Ftracker.openbittorrent.com%3A80&amp;tr=udp%3A%2F%2Fopen.demonii.com%3A1337&amp;tr=udp%3A%2F%2Ftracker.coppersurfer.tk%3A6969&amp;tr=udp%3A%2F%2Fexodus.desync.com%3A6969","seeders":10,"leechers":0,"uploader":"tyl3rdurd3n","files":-1,"time":1389046424,"description":"General\nComplete name                    : Gravitacija.2013.D.WEB-DL_720p.mkv\nFormat                           : Matroska\nFormat version                   : Version 2\nFile size                        : 2.92 GiB\nDuration                         : 1h 30mn\nOverall bit rate                 : 4 595 Kbps\nEncoded date                     : UTC 2014-01-06 14:10:19\nWriting application              : mkvmerge v5.8.0 ('No Sleep / Pillow') built on Sep  2 2012 15:37:04\nWriting library                  : libebml v1.2.3 + libmatroska v1.3.0\n\nVideo\nID                               : 1\nFormat                           : AVC\nFormat/Info                      : Advanced Video Codec\nFormat profile                   : &lt;a class=&quot;__cf_email__&quot; href=&quot;/cdn-cgi/l/email-protection&quot; data-cfemail=&quot;eaa78b8384aaa6d9c4db&quot;&gt;[email&amp;#160;protected]&lt;/a&gt;&lt;script cf-hash='f9e31' type=&quot;text/javascript&quot;&gt;\n/* &lt;![CDATA[ */!function(){try{var t=&quot;currentScript&quot;in document?document.currentScript:function(){for(var t=document.getElementsByTagName(&quot;script&quot;),e=t.length;e--;)if(t[e].getAttribute(&quot;cf-hash&quot;))return t[e]}();if(t&amp;&amp;t.previousSibling){var e,r,n,i,c=t.previousSibling,a=c.getAttribute(&quot;data-cfemail&quot;);if(a){for(e=&quot;&quot;,r=parseInt(a.substr(0,2),16),n=2;a.length-n;n+=2)i=parseInt(a.substr(n,2),16)^r,e+=String.fromCharCode(i);e=document.createTextNode(e),c.parentNode.replaceChild(e,c)}}}catch(u){}}();/* ]]&gt; */&lt;/script&gt;\nFormat settings, CABAC           : No\nFormat settings, ReFrames        : 2 frames\nCodec ID                         : V_MPEG4/ISO/AVC\nDuration                         : 1h 30mn\nBit rate                         : 3 928 Kbps\nWidth                            : 1 280 pixels\nHeight                           : 532 pixels\nDisplay aspect ratio             : 2.40:1\nFrame rate                       : 23.976 fps\nColor space                      : YUV\nChroma subsampling               : 4:2:0\nBit depth                        : 8 bits\nScan type                        : Progressive\nBits/(Pixel*Frame)               : 0.241\nStream size                      : 2.50 GiB (85%)\nLanguage                         : English\nColor primaries                  : BT.709-5, BT.1361, IEC 61966-2-4, SMPTE RP177\nTransfer characteristics         : BT.709-5, BT.1361\nMatrix coefficients              : BT.709-5, BT.1361, IEC 61966-2-4 709, SMPTE RP177\n\nAudio #1\nID                               : 2\nFormat                           : AC-3\nFormat/Info                      : Audio Coding 3\nMode extension                   : CM (complete main)\nCodec ID                         : A_AC3\nDuration                         : 1h 30mn\nBit rate mode                    : Constant\nBit rate                         : 192 Kbps\nChannel(s)                       : 2 channels\nChannel positions                : Front: L R\nSampling rate                    : 48.0 KHz\nBit depth                        : 16 bits\nCompression mode                 : Lossy\nStream size                      : 125 MiB (4%)\nLanguage                         : Russian\n\nAudio #2\nID                               : 3\nFormat                           : AC-3\nFormat/Info                      : Audio Coding 3\nMode extension                   : CM (complete main)\nCodec ID                         : A_AC3\nDuration                         : 1h 30mn\nBit rate mode                    : Constant\nBit rate                         : 384 Kbps\nChannel(s)                       : 6 channels\nChannel positions                : Front: L C R, Side: L R, LFE\nSampling rate                    : 48.0 KHz\nBit depth                        : 16 bits\nCompression mode                 : Lossy\nStream size                      : 250 MiB (8%)\nLanguage                         : English\n\n\nSubtitles                        : None\n\nNote: Russian audio set to default. You would need to manually switch to English audio.\n","torrent":{"xt":"urn:btih:7486e2f30410ced08cb187406e70a33bd2f0a078","amp;dn":"Gravity+2013+720p+WEB-DL+H264","amp;tr":["udp%3A%2F%2Ftracker.openbittorrent.com%3A80","udp%3A%2F%2Fopen.demonii.com%3A1337","udp%3A%2F%2Ftracker.coppersurfer.tk%3A6969","udp%3A%2F%2Fexodus.desync.com%3A6969"],"infoHash":"7486e2f30410ced08cb187406e70a33bd2f0a078","infoHashBuffer":{"type":"Buffer","data":[116,134,226,243,4,16,206,208,140,177,135,64,110,112,163,59,210,240,160,120]},"announce":[],"urlList":[]}}